<svg id="color" enable-background="new 0 0 24 24" height="512" viewBox="0 0 24 24" width="512" xmlns="http://www.w3.org/2000/svg"><path d="m19.25 19h-16.5c-1.516 0-2.75-1.233-2.75-2.75v-9.5c0-1.517 1.234-2.75 2.75-2.75h16.5c1.516 0 2.75 1.233 2.75 2.75v.25h.241c.965 0 1.75.785 1.75 1.75v5.5c0 .965-.785 1.75-1.75 1.75h-.241v.25c0 1.517-1.234 2.75-2.75 2.75z" fill="#607d8b"/><path d="m2.75 5.5c-.689 0-1.25.561-1.25 1.25v9.5c0 .689.561 1.25 1.25 1.25h16.5c.689 0 1.25-.561 1.25-1.25v-1c0-.414.336-.75.75-.75h.991c.138 0 .25-.112.25-.25v-5.5c0-.138-.112-.25-.25-.25h-.991c-.414 0-.75-.336-.75-.75v-1c0-.689-.561-1.25-1.25-1.25z" fill="#fafafa"/><path d="m23.991 11.5h-1.5v2.75c0 .138-.112.25-.25.25h-.991c-.414 0-.75.336-.75.75v1c0 .689-.561 1.25-1.25 1.25h-16.5c-.689 0-1.25-.561-1.25-1.25v-4.75h-1.5v4.75c0 1.517 1.234 2.75 2.75 2.75h16.5c1.516 0 2.75-1.233 2.75-2.75v-.25h.241c.965 0 1.75-.785 1.75-1.75z" fill="#546d79"/><path d="m22.491 11.5h-3.491v3.75c0 .414-.336.75-.75.75h-2.5c-.414 0-.75-.336-.75-.75v-3.75h-2v3.75c0 .414-.336.75-.75.75h-2.5c-.414 0-.75-.336-.75-.75v-3.75h-2v3.75c0 .414-.336.75-.75.75h-2.5c-.414 0-.75-.336-.75-.75v-3.75h-1.5v4.75c0 .689.561 1.25 1.25 1.25h16.5c.689 0 1.25-.561 1.25-1.25v-1c0-.414.336-.75.75-.75h.991c.138 0 .25-.112.25-.25z" fill="#dadada"/><g fill="#4caf50"><path d="m6.25 7h-2.5c-.414 0-.75.336-.75.75v7.5c0 .414.336.75.75.75h2.5c.414 0 .75-.336.75-.75v-7.5c0-.414-.336-.75-.75-.75z"/><path d="m12.25 7h-2.5c-.414 0-.75.336-.75.75v7.5c0 .414.336.75.75.75h2.5c.414 0 .75-.336.75-.75v-7.5c0-.414-.336-.75-.75-.75z"/><path d="m18.25 7h-2.5c-.414 0-.75.336-.75.75v7.5c0 .414.336.75.75.75h2.5c.414 0 .75-.336.75-.75v-7.5c0-.414-.336-.75-.75-.75z"/></g><path d="m5 7h-1.25c-.414 0-.75.336-.75.75v7.5c0 .414.336.75.75.75h1.25z" fill="#429846"/><path d="m11 7h-1.25c-.414 0-.75.336-.75.75v7.5c0 .414.336.75.75.75h1.25z" fill="#429846"/><path d="m17 7h-1.25c-.414 0-.75.336-.75.75v7.5c0 .414.336.75.75.75h1.25z" fill="#429846"/></svg>